# xmcd
#
# Track frame offsets: 
#        150
#        10083
#        18480
#        30094
#        42095
#        55303
#        64273
#        74377
#        85087
#        95510
#        108658
#        119195
#        128993
#        139040
#        153167
#        165313
#        175390
#        188737
#        198922
#
# Disc length: 2757 seconds
#
# Revision: 1
# Processed by: cddbd v1.5.2PL0 Copyright (c) Steve Scherf et al.
# Submitted via: ExactAudioCopyFreeDBPlugin 1.0
#
DISCID=fc0ac313
DTITLE=Various Artist - One Million Years of Doo-Wop
DYEAR=1997
DGENRE=Rhythm and Blues
TTITLE0=The Inspirations - Dry Your Eyes
TTITLE1=Billy and The Essentials - Maybe You'll Be There
TTITLE2=The Butlers - Lovable Girl
TTITLE3=The Pentagons - I'm in Love
TTITLE4=The Larks - I Want Her to Love Me
TTITLE5=The No Names - Love
TTITLE6=Tony Allen and The Wonders - God Gave Me You
TTITLE7=The Pentagons - I Wonder
TTITLE8=The Four J's - Here Am I Broken Hearted
TTITLE9=The Heartbeats - One Million Years
TTITLE10=The Larks - Fabulous Cars and Diamond Rings
TTITLE11=The Five Chords - Love is Like Music
TTITLE12=Billy and The Essentials - Tha Dance is Over
TTITLE13=The Heartbeats - Darling I Want to Get Married
TTITLE14=The Fantasys - No One But You
TTITLE15=The Butlers - When I Grow Older
TTITLE16=The Sundials - Chapel of Love
TTITLE17=The Pentagons - She's Mine
TTITLE18=The Intentions - Summertime Angel
EXTD=One Million Years Of Doo-Wop     (album]\nCD Label And #   J/G   
EXTD=jg4002-2\nTracks were compiled by Val Shively and Harvey Holiday\n
EXTD=My Name--Martin Resnick     and I hope I have done this reasonabl
EXTD=y right\n\n\n\n
EXTT0=
EXTT1=
EXTT2=
EXTT3=
EXTT4=
EXTT5=
EXTT6=
EXTT7=
EXTT8=
EXTT9=
EXTT10=
EXTT11=
EXTT12=
EXTT13=
EXTT14=
EXTT15=
EXTT16=
EXTT17=
EXTT18=
PLAYORDER=
